<svg width="14" height="19" viewBox="0 0 14 19" fill="none" xmlns="http://www.w3.org/2000/svg">
<path d="M13.918 12.3164C13.7852 14.1523 13.1055 15.5977 11.8789 16.6523C10.6602 17.707 9.05078 18.2344 7.05078 18.2344C4.86328 18.2344 3.14062 17.5 1.88281 16.0312C0.632812 14.5547 0.0078125 12.5312 0.0078125 9.96094V8.91797C0.0078125 7.27734 0.296875 5.83203 0.875 4.58203C1.45312 3.33203 2.27734 2.375 3.34766 1.71094C4.42578 1.03906 5.67578 0.703125 7.09766 0.703125C9.06641 0.703125 10.6523 1.23047 11.8555 2.28516C13.0586 3.33984 13.7539 4.82031 13.9414 6.72656H10.4258C10.3398 5.625 10.0312 4.82812 9.5 4.33594C8.97656 3.83594 8.17578 3.58594 7.09766 3.58594C5.92578 3.58594 5.04688 4.00781 4.46094 4.85156C3.88281 5.6875 3.58594 6.98828 3.57031 8.75391V10.043C3.57031 11.8867 3.84766 13.2344 4.40234 14.0859C4.96484 14.9375 5.84766 15.3633 7.05078 15.3633C8.13672 15.3633 8.94531 15.1172 9.47656 14.625C10.0156 14.125 10.3242 13.3555 10.4023 12.3164H13.918Z" fill="#EA991F" fill-opacity="0.95"/>
</svg>
