<svg width="24" height="24" viewBox="0 0 24 24" fill="none" xmlns="http://www.w3.org/2000/svg">
<g clip-path="url(#clip0)">
<path d="M12.0001 0C5.38324 0 0 5.38315 0 12C0 18.6168 5.38324 24 12.0001 24C18.6169 24 24.0001 18.6168 24.0001 12C24.0001 5.38315 18.6168 0 12.0001 0ZM12.0001 20.5229C7.29291 20.5229 3.47706 16.7072 3.47706 12C3.47706 7.29282 7.29291 3.47706 12.0001 3.47706C16.7071 3.47706 20.523 7.29282 20.523 12C20.523 16.7072 16.707 20.5229 12.0001 20.5229Z" fill="#D66565"/>
<path d="M12.0001 4.58057C7.90881 4.58057 4.58044 7.90893 4.58044 12.0001C4.58044 16.0913 7.90891 19.4197 12.0001 19.4197C16.0913 19.4197 19.4196 16.0913 19.4196 12.0001C19.4196 7.90893 16.0912 4.58057 12.0001 4.58057ZM18.4695 11.5271H14.8694C14.7959 11.0721 14.6162 10.6525 14.357 10.2938L16.8985 7.75232C17.7907 8.77971 18.3651 10.0888 18.4695 11.5271ZM12.4656 5.53007C13.903 5.63257 15.2116 6.20482 16.2396 7.09445L13.6986 9.63549C13.34 9.37638 12.9205 9.19676 12.4656 9.12321V5.53007ZM11.5345 5.53007V9.12311C11.0796 9.19666 10.66 9.37629 10.3013 9.63549L7.7603 7.09454C8.78826 6.20491 10.0971 5.63257 11.5345 5.53007ZM7.10131 7.75241L9.64291 10.2939C9.38371 10.6525 9.20408 11.0721 9.13054 11.527H5.53052C5.6349 10.0888 6.20932 8.7798 7.10131 7.75241ZM5.52948 12.4581H9.13063C9.20408 12.9129 9.3838 13.3325 9.64301 13.6912L7.09442 16.2398C6.20319 15.21 5.63047 13.8984 5.52948 12.4581ZM11.5345 18.4702C10.0932 18.3674 8.78147 17.7924 7.7522 16.8987L10.3013 14.3496C10.66 14.6088 11.0796 14.7884 11.5345 14.8619V18.4702ZM11.5345 13.9041V13.9109C11.3335 13.8621 11.145 13.7827 10.9732 13.6776L10.9776 13.6732C10.7089 13.5093 10.4831 13.2836 10.3193 13.0148L10.3149 13.0191C10.2099 12.8473 10.1305 12.6588 10.0816 12.4579H10.0883C10.052 12.3084 10.0307 12.1531 10.0307 11.9924C10.0307 11.8317 10.0521 11.6763 10.0883 11.5269H10.0816C10.1305 11.326 10.2098 11.1375 10.3149 10.9657L10.3193 10.9701C10.4831 10.7014 10.709 10.4755 10.9776 10.3117L10.9732 10.3073C11.145 10.2023 11.3335 10.1228 11.5345 10.074V10.0808C11.684 10.0445 11.8393 10.0231 12.0001 10.0231C12.1609 10.0231 12.3161 10.0445 12.4657 10.0808V10.074C12.6666 10.1229 12.8551 10.2022 13.0268 10.3072L13.0224 10.3116C13.2912 10.4754 13.5169 10.7013 13.6808 10.97L13.6852 10.9656C13.7903 11.1374 13.8697 11.326 13.9185 11.527H13.9118C13.9481 11.6764 13.9694 11.8318 13.9694 11.9925C13.9694 12.1531 13.948 12.3085 13.9118 12.458H13.9185C13.8697 12.6589 13.7904 12.8475 13.6852 13.0193L13.6808 13.015C13.5169 13.2837 13.2911 13.5094 13.0224 13.6733L13.0268 13.6776C12.8551 13.7827 12.6666 13.8621 12.4657 13.9109V13.9041C12.3161 13.9404 12.1609 13.9618 12.0001 13.9618C11.8393 13.9618 11.684 13.9405 11.5345 13.9041ZM12.4656 18.4702V14.8619C12.9205 14.7884 13.34 14.6088 13.6986 14.3496L16.2477 16.8987C15.2185 17.7924 13.9067 18.3674 12.4656 18.4702ZM16.9056 16.2398L14.3571 13.6913C14.6163 13.3326 14.7959 12.913 14.8695 12.4581H18.4706C18.3695 13.8984 17.7969 15.21 16.9056 16.2398Z" fill="#D66565"/>
</g>
<defs>
<clipPath id="clip0">
<rect width="24" height="24" fill="white"/>
</clipPath>
</defs>
</svg>
